Coordinates
version=1
nRows=26
nColumns=30
inDegrees=yes

Units are S.I. units (second, meters, Newtons, ...)
Angles are in degrees.

endheader
time	floatyaw	floatroll	floatpitch	floatx	floaty	floatz	pro_sup_l	deviation_l	flexion_l	cmc_flexion_l	cmc_abduction_l	mp_flexion_l	ip_flexion_l	2mcp_flexion_l	2mcp_abduction_l	2pm_flexion_l	2md_flexion_l	3mcp_flexion_l	3mcp_abduction_l	3pm_flexion_l	3md_flexion_l	4mcp_flexion_l	4mcp_abduction_l	4pm_flexion_l	4md_flexion_l	5mcp_flexion_l	5mcp_abduction_l	5pm_flexion_l	5md_flexion_l
-1.495000	-160.147433	-5.066637	-73.570646	0.078313	-0.180774	-0.020861	99.389593	0.409149	-1.884952	16.055794	0.426895	-25.033976	-40.917551	30.747536	6.697815	42.043277	29.390509	24.931409	3.982140	43.805957	29.079667	14.714647	-4.380025	51.140431	35.505384	0.852549	-7.608491	61.664766	42.578293
-1.485000	-160.147433	-5.066637	-73.570646	0.078309	-0.180778	-0.020868	99.392662	0.408769	-1.889709	16.048633	0.423222	-25.049515	-40.924665	30.761941	6.695379	42.050544	29.398558	24.926412	3.982683	43.823880	29.092486	14.714666	-4.381565	51.150479	35.506511	0.860034	-7.610969	61.661896	42.575108
-1.475000	-160.147433	-5.066637	-73.570646	0.078306	-0.180783	-0.020874	99.388028	0.406279	-1.892012	16.041911	0.427948	-25.071264	-40.940079	30.772329	6.692091	42.057201	29.408671	24.920217	3.982091	43.837651	29.104671	14.714890	-4.382465	51.149545	35.504393	0.861803	-7.611487	61.654897	42.571761
-1.465000	-160.147433	-5.066637	-73.570646	0.078304	-0.180785	-0.020880	99.375597	0.401214	-1.889705	16.035899	0.439845	-25.096890	-40.961996	30.776765	6.689186	42.059957	29.419348	24.911308	3.980658	43.845030	29.115903	14.712715	-4.383121	51.140101	35.501643	0.853910	-7.609957	61.646988	42.571928
-1.455000	-160.147433	-5.066637	-73.570646	0.078304	-0.180784	-0.020884	99.359820	0.395016	-1.882254	16.031410	0.454184	-25.122604	-40.987818	30.776342	6.687345	42.056772	29.428064	24.899524	3.978859	43.846701	29.125761	14.707507	-4.384000	51.126887	35.500295	0.837458	-7.606546	61.640775	42.576866
-1.445000	-160.147433	-5.066637	-73.570646	0.078304	-0.180778	-0.020886	99.346916	0.390039	-1.871188	16.028911	0.466493	-25.144920	-41.014922	30.774545	6.686395	42.048784	29.432586	24.886981	3.977091	43.845424	29.133164	14.700975	-4.385307	51.114800	35.500829	0.817765	-7.601667	61.637406	42.585012
-1.435000	-160.147433	-5.066637	-73.570646	0.078305	-0.180768	-0.020885	99.340698	0.387788	-1.859717	16.027721	0.477085	-25.161843	-41.040550	30.775345	6.685656	42.040703	29.432330	24.877553	3.975422	43.845177	29.136910	14.696129	-4.386952	51.107530	35.502408	0.801379	-7.595827	61.636825	42.593305
-1.425000	-160.147433	-5.066637	-73.570646	0.078305	-0.180758	-0.020882	99.339818	0.387667	-1.851518	16.025934	0.492367	-25.172913	-41.061384	30.780952	6.684770	42.038923	29.428894	24.874918	3.973564	43.850102	29.136795	14.695380	-4.388727	51.107198	35.503988	0.792705	-7.589532	61.638600	42.599295
-1.415000	-160.147433	-5.066637	-73.570646	0.078302	-0.180752	-0.020879	99.338637	0.387275	-1.849144	16.021281	0.520706	-25.178425	-41.073893	30.790407	6.684366	42.048111	29.425430	24.880384	3.971167	43.862763	29.134164	14.698993	-4.390444	51.114346	35.505275	0.792160	-7.583384	61.642500	42.602554
-1.405000	-160.147433	-5.066637	-73.570646	0.078298	-0.180751	-0.020876	99.331406	0.384166	-1.852796	16.012368	0.565171	-25.178606	-41.075730	30.799895	6.685921	42.068235	29.425164	24.891946	3.968262	43.882213	29.131272	14.704880	-4.391934	51.127756	35.506803	0.796676	-7.578188	61.648389	42.604496
-1.395000	-160.147433	-5.066637	-73.570646	0.078292	-0.180756	-0.020874	99.316833	0.377818	-1.860150	15.999424	0.618702	-25.173324	-41.067222	30.804788	6.690777	42.093915	29.429754	24.905184	3.965493	43.903453	29.129936	14.709882	-4.393011	51.144299	35.509205	0.801930	-7.574760	61.655609	42.606791
-1.385000	-160.147433	-5.066637	-73.570646	0.078288	-0.180764	-0.020873	99.299709	0.370346	-1.867479	15.984090	0.665864	-25.162435	-41.051729	30.802392	6.698985	42.116674	29.438291	24.915442	3.963925	43.919348	29.130497	14.711792	-4.393545	51.159455	35.512333	0.804905	-7.573447	61.662486	42.609604
-1.375000	-160.147433	-5.066637	-73.570646	0.078285	-0.180771	-0.020873	99.288307	0.365331	-1.871576	15.968573	0.690533	-25.146610	-41.034517	30.793742	6.708847	42.129046	29.447545	24.920044	3.964528	43.924252	29.131785	14.710815	-4.393622	51.168785	35.515023	0.805391	-7.573758	61.666545	42.611021
-1.365000	-160.147433	-5.066637	-73.570646	0.078285	-0.180773	-0.020874	99.289323	0.365583	-1.871383	15.954795	0.684542	-25.128155	-41.020872	30.783266	6.717525	42.128287	29.453565	24.919294	3.967652	43.917069	29.132062	14.709429	-4.393618	51.169802	35.515731	0.805712	-7.574508	61.665491	42.608184
-1.355000	-160.147433	-5.066637	-73.570646	0.078287	-0.180769	-0.020876	99.303869	0.371474	-1.868273	15.943911	0.651849	-25.111029	-41.014390	30.776467	6.722340	42.117489	29.453793	24.915756	3.972783	43.901763	29.130260	14.710651	-4.394008	51.163069	35.513577	0.808979	-7.574475	61.658374	42.599280
-1.345000	-160.147433	-5.066637	-73.570646	0.078290	-0.180763	-0.020879	99.327072	0.380965	-1.864777	15.936103	0.605995	-25.099504	-41.015918	30.777002	6.721992	42.103432	29.448342	24.912335	3.978690	43.885069	29.126685	14.715811	-4.394997	51.151741	35.509036	0.817057	-7.573189	61.646171	42.584935
-1.335000	-160.147433	-5.066637	-73.570646	0.078291	-0.180756	-0.020882	99.351115	0.391098	-1.862602	15.930451	0.562724	-25.095881	-41.023192	30.784799	6.717092	42.092514	29.439649	24.910392	3.983908	43.872844	29.122721	14.723307	-4.396227	51.139784	35.503763	0.829443	-7.571361	61.631444	42.568104
-1.325000	-160.147433	-5.066637	-73.570646	0.078290	-0.180749	-0.020885	99.369405	0.399697	-1.861273	15.924970	0.532375	-25.098713	-41.031175	30.796196	6.709785	42.087358	29.430933	24.909051	3.987331	43.867311	29.119883	14.729189	-4.396841	51.129942	35.499687	0.843534	-7.570632	61.617277	42.552707
-1.315000	-160.147433	-5.066637	-73.570646	0.078289	-0.180741	-0.020886	99.379298	0.406194	-1.858302	15.917101	0.516511	-25.103067	-41.033299	30.805894	6.702683	42.086293	29.424737	24.905991	3.988583	43.866892	29.119094	14.729275	-4.395896	51.122734	35.498035	0.855937	-7.572659	61.605994	42.541981
-1.305000	-160.147433	-5.066637	-73.570646	0.078288	-0.180731	-0.020883	99.382164	0.411269	-1.850814	15.904748	0.510443	-25.103165	-41.023733	30.809593	6.697697	42.085885	29.422448	24.899125	3.987995	43.868661	29.120809	14.721522	-4.392895	51.117097	35.498945	0.864008	-7.578000	61.598277	42.537443
-1.295000	-160.147433	-5.066637	-73.570646	0.078289	-0.180718	-0.020876	99.381380	0.415849	-1.837593	15.887444	0.509053	-25.096071	-41.000275	30.805887	6.695385	42.084501	29.424655	24.888062	3.986230	43.871482	29.125597	14.707200	-4.388122	51.112136	35.501850	0.866823	-7.585477	61.593183	42.538779
-1.285000	-160.147433	-5.066637	-73.570646	0.078291	-0.180702	-0.020867	99.379925	0.420247	-1.820275	15.866948	0.511114	-25.084052	-40.966574	30.796555	6.695105	42.084131	29.431516	24.874561	3.983864	43.877315	29.134271	14.690209	-4.382610	51.108632	35.506227	0.865234	-7.592501	61.589073	42.544375
-1.275000	-160.147433	-5.066637	-73.570646	0.078292	-0.180686	-0.020855	99.379047	0.423966	-1.802897	15.846727	0.519111	-25.073874	-40.932021	30.785358	6.695759	42.089158	29.442571	24.861795	3.981221	43.889675	29.147153	14.675115	-4.377778	51.109082	35.512006	0.861223	-7.596284	61.584817	42.552013
-1.265000	-160.147433	-5.066637	-73.570646	0.078290	-0.180674	-0.020846	99.378413	0.426112	-1.790032	15.830433	0.535693	-25.073202	-40.908529	30.776145	6.696581	42.103144	29.456306	24.852864	3.978507	43.910552	29.163059	14.665141	-4.374883	51.116128	35.519316	0.857041	-7.595267	61.580481	42.559473
-1.255000	-160.147433	-5.066637	-73.570646	0.078284	-0.180669	-0.020839	99.377143	0.426048	-1.784620	15.820220	0.560342	-25.086281	-40.905428	30.771254	6.697480	42.126081	29.470182	24.849368	3.976064	43.938288	29.179090	14.661188	-4.374499	51.130477	35.527856	0.854513	-7.589934	61.577206	42.565075
-1.245000	-160.147433	-5.066637	-73.570646	0.078275	-0.180670	-0.020837	99.374784	0.423880	-1.786721	15.815876	0.588922	-25.111502	-40.925204	30.770978	6.698785	42.153988	29.481476	24.850789	3.974429	43.967944	29.191676	14.662186	-4.376302	51.149782	35.536498	0.854620	-7.582567	61.576498	42.568122
